<mxfile host="app.diagrams.net" modified="2023-08-31T09:09:43.835Z" agent="Mozilla/5.0 (Windows NT 10.0; Win64; x64; rv:109.0) Gecko/20100101 Firefox/116.0" etag="FxNI2pRhzipsgU-5QUgH" version="21.7.1" type="github">
  <diagram name="Page-1" id="6gZBF5N9qgQL3avrO13o">
    <mxGraphModel dx="1434" dy="774" grid="1" gridSize="10" guides="1" tooltips="1" connect="1" arrows="1" fold="1" page="1" pageScale="1" pageWidth="850" pageHeight="1100" math="0" shadow="0">
      <root>
        <mxCell id="0" />
        <mxCell id="1" parent="0" />
        <mxCell id="m2DUk4kJDwvMj12En-8C-1" value="" style="rounded=0;whiteSpace=wrap;html=1;fillColor=none;" parent="1" vertex="1">
          <mxGeometry x="105" y="160" width="640" height="400" as="geometry" />
        </mxCell>
        <mxCell id="m2DUk4kJDwvMj12En-8C-2" value="" style="rounded=0;whiteSpace=wrap;html=1;" parent="1" vertex="1">
          <mxGeometry x="105" y="160" width="640" height="60" as="geometry" />
        </mxCell>
        <mxCell id="m2DUk4kJDwvMj12En-8C-3" value="&lt;div&gt;Items&lt;/div&gt;" style="rounded=0;whiteSpace=wrap;html=1;" parent="1" vertex="1">
          <mxGeometry x="105" y="160" width="120" height="60" as="geometry" />
        </mxCell>
        <mxCell id="m2DUk4kJDwvMj12En-8C-4" value="Bid Cart" style="rounded=0;whiteSpace=wrap;html=1;" parent="1" vertex="1">
          <mxGeometry x="225" y="160" width="120" height="60" as="geometry" />
        </mxCell>
        <mxCell id="m2DUk4kJDwvMj12En-8C-5" value="Profile" style="rounded=0;whiteSpace=wrap;html=1;" parent="1" vertex="1">
          <mxGeometry x="510" y="160" width="120" height="60" as="geometry" />
        </mxCell>
        <mxCell id="GUNn-2hqt1_SEjNuOjbp-1" value="Logout" style="rounded=0;whiteSpace=wrap;html=1;" vertex="1" parent="1">
          <mxGeometry x="625" y="160" width="120" height="60" as="geometry" />
        </mxCell>
      </root>
    </mxGraphModel>
  </diagram>
</mxfile>
